<?xml version="1.0" standalone="no"?>
<!DOCTYPE svg PUBLIC "-//W3C//DTD SVG 20010904//EN"
 "http://www.w3.org/TR/2001/REC-SVG-20010904/DTD/svg10.dtd">
<svg version="1.0" xmlns="http://www.w3.org/2000/svg"
 width="56.000000pt" height="50.000000pt" viewBox="0 0 56.000000 50.000000"
 preserveAspectRatio="xMidYMid meet">

<rect width="56" height="50" fill="#2C5697" />
<g transform="translate(0.000000,50.000000) scale(0.100000,-0.100000)"
fill="#FFFFFF" stroke="none">
<path d="M348 72 l57 -27 0 -54 c0 -35 -5 -56 -12 -58 -9 -3 -13 6 -13 26 0 42 -16 39 -24 -5 -6 -28 -14 -38 -41 -50 -72 -30 -140 -7 -150 50 -5 22 -15 37 -32 45 -39 18 -24 43 47 78 72 36 83 35 168 -5z"/>
<path d="M200 303 l-55 -25 45 -24 c57 -29 73 -29 135 0 l50 23 -59 27 c-32 14 -59 26 -60 25 0 0 -26 -12 -56 -26z"/>
<path d="M200 204 c0 -22 44 -37 84 -30 26 5 36 12 36 26 0 16 -3 17 -30 7 -22 -8 -38 -8 -60 0 -25 9 -30 9 -30 -3z"/>
</g>
</svg>
